<svg xmlns="http://www.w3.org/2000/svg" width="112" height="112" viewBox="0 0 112 112" fill="none">
  <rect width="112" height="112" fill="#0A0A0A"/>
  <g transform="translate(10.000, 42.446) scale(0.821429)">
    <path d="M24.7192 3.58813e-07C22.1404 -0.000694516 19.6638 1.0079 17.8192 2.81L18.7692 4.70999L18.3692 5.03999C17.5027 3.53877 16.2608 2.28857 14.7654 1.41202C13.27 0.535465 11.5724 0.062657 9.8392 0.0399936C4.3992 0.0399936 -0.00079146 4.8 -0.00079146 10.38V22.38C-0.0065879 22.4826 0.00935395 22.5853 0.0459996 22.6814C0.0826453 22.7774 0.139164 22.8647 0.211855 22.9373C0.284546 23.01 0.371774 23.0665 0.467821 23.1032C0.563868 23.1398 0.666568 23.1558 0.769205 23.15H4.70921C4.80544 23.1513 4.90098 23.1334 4.99015 23.0972C5.07933 23.061 5.16034 23.0072 5.2284 22.9392C5.29645 22.8711 5.35017 22.7901 5.38638 22.7009C5.42259 22.6118 5.44055 22.5162 5.4392 22.42V10.25C5.4392 7.48 7.11921 5.25 9.96921 5.25C12.6492 5.25 14.5592 7.25 14.5592 10.2V20.2C14.5524 20.2991 14.5659 20.3986 14.5989 20.4924C14.6319 20.5861 14.6837 20.6722 14.7511 20.7452C14.8185 20.8182 14.9001 20.8767 14.9909 20.9171C15.0817 20.9575 15.1798 20.9789 15.2792 20.98H19.0492C19.1486 20.9789 19.2467 20.9575 19.3375 20.9171C19.4283 20.8767 19.5099 20.8182 19.5773 20.7452C19.6447 20.6722 19.6965 20.5861 19.7295 20.4924C19.7625 20.3986 19.776 20.2991 19.7692 20.2V10.2C19.725 9.56222 19.8133 8.9222 20.0286 8.32025C20.244 7.7183 20.5816 7.16747 21.0203 6.70245C21.4591 6.23744 21.9893 5.86831 22.5777 5.61833C23.1661 5.36836 23.7999 5.24295 24.4392 5.25C27.2992 5.25 28.8892 7.52 28.8892 10.25V22.4C28.897 22.5981 28.9819 22.7852 29.1257 22.9216C29.2696 23.058 29.461 23.1328 29.6592 23.13H33.5592C33.6618 23.1358 33.7645 23.1199 33.8606 23.0832C33.9566 23.0466 34.0439 22.99 34.1166 22.9173C34.1892 22.8447 34.2458 22.7574 34.2824 22.6614C34.3191 22.5653 34.335 22.4626 34.3292 22.36V10.36C34.3292 4.76 30.1092 3.58813e-07 24.7192 3.58813e-07Z" fill="#2FF19E"/>
    <path d="M60.0091 0.449768H56.4291C56.3295 0.442827 56.2297 0.456644 56.1358 0.490341C56.0419 0.524038 55.956 0.576887 55.8836 0.645523C55.8112 0.71416 55.7539 0.797085 55.7152 0.889053C55.6765 0.981022 55.6574 1.08002 55.6591 1.17976V1.66977L56.9291 3.66977L56.5791 4.00977C55.5299 2.77492 54.2285 1.77905 52.7623 1.0891C51.2962 0.399145 49.6993 0.0311141 48.0791 0.00976562C44.9522 0.00976562 41.9533 1.25193 39.7423 3.46298C37.5312 5.67404 36.2891 8.67287 36.2891 11.7998C36.2891 14.9267 37.5312 17.9255 39.7423 20.1366C41.9533 22.3476 44.9522 23.5898 48.0791 23.5898C49.7071 23.5716 51.3124 23.2053 52.7871 22.5154C54.2618 21.8255 55.5718 20.8279 56.6291 19.5898L56.9291 19.8298L55.6591 21.9098V22.3698C55.6577 22.4713 55.6767 22.572 55.7149 22.666C55.7532 22.76 55.8098 22.8455 55.8816 22.9172C55.9534 22.989 56.0388 23.0457 56.1328 23.0839C56.2268 23.1221 56.3276 23.1411 56.4291 23.1398H60.0091C60.1113 23.144 60.2133 23.127 60.3087 23.0898C60.404 23.0526 60.4906 22.996 60.563 22.9237C60.6353 22.8513 60.6919 22.7647 60.7291 22.6694C60.7663 22.574 60.7833 22.472 60.7791 22.3698V1.17976C60.7839 1.07915 60.767 0.978691 60.7294 0.885223C60.6919 0.791756 60.6346 0.707486 60.5615 0.638184C60.4884 0.568881 60.4012 0.516175 60.3058 0.483658C60.2105 0.451141 60.1093 0.439579 60.0091 0.449768V0.449768ZM48.0791 18.4998C46.2995 18.4998 44.5927 17.7928 43.3344 16.5345C42.076 15.2761 41.3691 13.5694 41.3691 11.7898C41.3691 10.0102 42.076 8.30346 43.3344 7.04509C44.5927 5.78672 46.2995 5.07977 48.0791 5.07977C49.8587 5.07977 51.5654 5.78672 52.8237 7.04509C54.0821 8.30346 54.7891 10.0102 54.7891 11.7898C54.7891 13.5694 54.0821 15.2761 52.8237 16.5345C51.5654 17.7928 49.8587 18.4998 48.0791 18.4998V18.4998Z" fill="#2FF19E"/>
    <path d="M111.21 0.449768H107.63C107.531 0.442827 107.431 0.456644 107.337 0.490341C107.243 0.524038 107.157 0.576887 107.085 0.645523C107.012 0.71416 106.955 0.797085 106.916 0.889053C106.878 0.981022 106.859 1.08002 106.86 1.17976V1.66977L108.13 3.66977L107.78 4.00977C106.731 2.77492 105.43 1.77905 103.964 1.0891C102.497 0.399145 100.9 0.0311141 99.2802 0.00976562C96.1533 0.00976562 93.1545 1.25193 90.9435 3.46298C88.7324 5.67404 87.4902 8.67287 87.4902 11.7998C87.4902 14.9267 88.7324 17.9255 90.9435 20.1366C93.1545 22.3476 96.1533 23.5898 99.2802 23.5898C100.908 23.5716 102.514 23.2053 103.988 22.5154C105.463 21.8255 106.773 20.8279 107.83 19.5898L108.13 19.8298L106.86 21.9098V22.3698C106.859 22.4713 106.878 22.572 106.916 22.666C106.954 22.76 107.011 22.8455 107.083 22.9172C107.155 22.989 107.24 23.0457 107.334 23.0839C107.428 23.1221 107.529 23.1411 107.63 23.1398H111.21C111.312 23.144 111.415 23.127 111.51 23.0898C111.605 23.0526 111.692 22.996 111.764 22.9237C111.836 22.8513 111.893 22.7647 111.93 22.6694C111.967 22.574 111.984 22.472 111.98 22.3698V1.17976C111.985 1.07915 111.968 0.978691 111.931 0.885223C111.893 0.791756 111.836 0.707486 111.763 0.638184C111.69 0.568881 111.602 0.516175 111.507 0.483658C111.412 0.451141 111.31 0.439579 111.21 0.449768V0.449768ZM99.2802 18.4998C97.5006 18.4998 95.7939 17.7928 94.5356 16.5345C93.2772 15.2761 92.5702 13.5694 92.5702 11.7898C92.5702 10.0102 93.2772 8.30346 94.5356 7.04509C95.7939 5.78672 97.5006 5.07977 99.2802 5.07977C101.06 5.07977 102.767 5.78672 104.025 7.04509C105.283 8.30346 105.99 10.0102 105.99 11.7898C105.99 13.5694 105.283 15.2761 104.025 16.5345C102.767 17.7928 101.06 18.4998 99.2802 18.4998V18.4998Z" fill="#2FF19E"/>
    <path d="M84.5505 0.449801H80.8805C80.2905 0.449801 79.9705 0.769806 79.9705 1.07981V12.1498C80.0207 12.9234 79.9069 13.6988 79.6365 14.4253C79.366 15.1518 78.945 15.8129 78.4011 16.3653C77.8573 16.9177 77.2027 17.3489 76.4805 17.6306C75.7583 17.9123 74.9847 18.0381 74.2104 17.9998C70.9904 17.9998 68.9004 15.5998 68.9004 12.1498V1.07981C68.9004 0.769806 68.4104 0.449801 68.0904 0.449801H64.1404C63.9772 0.461422 63.8236 0.531525 63.7079 0.64725C63.5922 0.762974 63.5221 0.91656 63.5104 1.07981V12.0798C63.4783 14.9552 64.5858 17.7263 66.5908 19.7875C68.5958 21.8487 71.3353 23.0324 74.2104 23.0798C76.9577 23.0805 79.6106 22.0776 81.6704 20.2598L81.8805 20.4498L80.2404 22.6698V23.5598C80.2404 25.8298 76.8404 27.0998 74.8504 27.0998H73.5805C73.4785 27.093 73.3762 27.1066 73.2795 27.1398C73.1829 27.173 73.0938 27.2251 73.0175 27.293C72.9412 27.3609 72.8791 27.4434 72.835 27.5356C72.7909 27.6277 72.7655 27.7277 72.7604 27.8298V31.4498C72.7782 31.6531 72.873 31.842 73.0255 31.9777C73.1779 32.1134 73.3764 32.1857 73.5805 32.1798H74.8104C80.8804 32.1798 85.3305 28.6398 85.3305 21.9698V1.07981C85.3032 0.896066 85.2079 0.729277 85.0634 0.612566C84.9189 0.495856 84.7358 0.437755 84.5505 0.449801V0.449801Z" fill="#2FF19E"/>
  </g>
</svg>
